<svg xmlns="http://www.w3.org/2000/svg" xmlns:xlink="http://www.w3.org/1999/xlink" width="336" zoomAndPan="magnify" viewBox="0 0 252 143.999998" height="192" preserveAspectRatio="xMidYMid meet" version="1.0"><defs><g/><clipPath id="769bbb91ac"><path d="M 44.398438 0 L 87.601562 0 L 87.601562 144 L 44.398438 144 Z M 44.398438 0 " clip-rule="nonzero"/></clipPath><clipPath id="afb4af08aa"><path d="M 95.152344 100.21875 L 110 100.21875 L 110 115 L 95.152344 115 Z M 95.152344 100.21875 " clip-rule="nonzero"/></clipPath><clipPath id="c6685124ad"><path d="M 95.152344 82.230469 L 110 82.230469 L 110 97 L 95.152344 97 Z M 95.152344 82.230469 " clip-rule="nonzero"/></clipPath></defs><rect x="-25.2" width="302.4" fill="#ffffff" y="-14.4" height="172.799997" fill-opacity="1"/><rect x="-25.2" width="302.4" fill="#000000" y="-14.4" height="172.799997" fill-opacity="1"/><g clip-path="url(#769bbb91ac)"><path fill="#f2d7d7" d="M 44.398438 -9 L 87.601562 -9 L 87.601562 153 L 44.398438 153 Z M 44.398438 -9 " fill-opacity="1" fill-rule="nonzero"/></g><g clip-path="url(#afb4af08aa)"><path fill="#ffffff" d="M 97.78125 112.363281 C 95.152344 109.734375 95.152344 105.480469 97.78125 102.851562 C 100.410156 100.222656 104.664062 100.222656 107.289062 102.851562 C 109.917969 105.480469 109.917969 109.734375 107.289062 112.363281 C 104.664062 114.992188 100.410156 114.992188 97.78125 112.363281 Z M 102.535156 101.34375 C 99.082031 101.34375 96.273438 104.15625 96.273438 107.609375 C 96.273438 111.0625 99.082031 113.871094 102.535156 113.871094 C 105.988281 113.871094 108.796875 111.0625 108.796875 107.609375 C 108.796875 104.15625 105.988281 101.34375 102.535156 101.34375 Z M 102.535156 101.34375 " fill-opacity="1" fill-rule="nonzero"/></g><path fill="#ffffff" d="M 104.753906 105.617188 C 104.332031 105.535156 104.332031 104.929688 104.753906 104.839844 C 105.140625 104.761719 105.390625 105.238281 105.113281 105.507812 C 105.011719 105.609375 104.894531 105.644531 104.753906 105.617188 Z M 104.753906 105.617188 " fill-opacity="1" fill-rule="nonzero"/><path fill="#ffffff" d="M 104.753906 111.59375 L 100.316406 111.59375 C 100.082031 111.59375 99.859375 111.546875 99.640625 111.457031 C 99.425781 111.367188 99.234375 111.238281 99.070312 111.074219 C 98.902344 110.910156 98.777344 110.71875 98.6875 110.503906 C 98.597656 110.285156 98.550781 110.0625 98.550781 109.828125 L 98.550781 105.390625 C 98.550781 105.15625 98.597656 104.929688 98.6875 104.714844 C 98.777344 104.496094 98.902344 104.308594 99.070312 104.140625 C 99.234375 103.976562 99.425781 103.847656 99.640625 103.757812 C 99.859375 103.667969 100.082031 103.625 100.316406 103.625 L 104.753906 103.625 C 104.988281 103.625 105.214844 103.667969 105.429688 103.757812 C 105.644531 103.847656 105.835938 103.976562 106.003906 104.140625 C 106.167969 104.308594 106.296875 104.496094 106.386719 104.714844 C 106.476562 104.929688 106.519531 105.15625 106.519531 105.390625 L 106.519531 109.828125 C 106.519531 110.0625 106.476562 110.285156 106.386719 110.503906 C 106.296875 110.71875 106.167969 110.910156 106.003906 111.074219 C 105.835938 111.238281 105.644531 111.367188 105.429688 111.457031 C 105.214844 111.546875 104.988281 111.59375 104.753906 111.59375 Z M 100.316406 104.085938 C 100.144531 104.085938 99.976562 104.117188 99.816406 104.183594 C 99.660156 104.25 99.515625 104.34375 99.394531 104.46875 C 99.273438 104.589844 99.179688 104.730469 99.113281 104.890625 C 99.046875 105.050781 99.011719 105.214844 99.011719 105.390625 L 99.011719 109.828125 C 99.011719 110 99.046875 110.164062 99.113281 110.324219 C 99.179688 110.484375 99.273438 110.625 99.394531 110.75 C 99.515625 110.871094 99.660156 110.964844 99.816406 111.03125 C 99.976562 111.097656 100.144531 111.128906 100.316406 111.128906 L 104.753906 111.128906 C 104.925781 111.128906 105.09375 111.097656 105.253906 111.03125 C 105.414062 110.964844 105.554688 110.871094 105.675781 110.75 C 105.796875 110.625 105.890625 110.484375 105.957031 110.324219 C 106.023438 110.164062 106.058594 110 106.058594 109.828125 L 106.058594 105.390625 C 106.058594 105.214844 106.023438 105.050781 105.957031 104.890625 C 105.890625 104.730469 105.796875 104.589844 105.675781 104.46875 C 105.554688 104.34375 105.414062 104.25 105.253906 104.183594 C 105.09375 104.117188 104.925781 104.085938 104.753906 104.085938 Z M 100.316406 104.085938 " fill-opacity="1" fill-rule="nonzero"/><path fill="#ffffff" d="M 102.535156 109.738281 C 102.253906 109.738281 101.980469 109.683594 101.71875 109.578125 C 101.457031 109.46875 101.226562 109.316406 101.027344 109.113281 C 100.828125 108.914062 100.675781 108.683594 100.566406 108.421875 C 100.457031 108.164062 100.40625 107.890625 100.40625 107.609375 C 100.40625 107.324219 100.457031 107.054688 100.566406 106.792969 C 100.675781 106.53125 100.828125 106.300781 101.027344 106.101562 C 101.226562 105.902344 101.457031 105.746094 101.71875 105.640625 C 101.980469 105.53125 102.253906 105.476562 102.535156 105.476562 C 102.816406 105.476562 103.089844 105.53125 103.351562 105.640625 C 103.613281 105.746094 103.84375 105.902344 104.042969 106.101562 C 104.242188 106.300781 104.394531 106.53125 104.503906 106.792969 C 104.613281 107.054688 104.667969 107.324219 104.667969 107.609375 C 104.667969 107.890625 104.613281 108.164062 104.503906 108.421875 C 104.394531 108.683594 104.242188 108.914062 104.042969 109.113281 C 103.84375 109.3125 103.613281 109.46875 103.351562 109.574219 C 103.089844 109.683594 102.816406 109.738281 102.535156 109.738281 Z M 102.535156 105.9375 C 102.3125 105.9375 102.101562 105.980469 101.898438 106.066406 C 101.691406 106.148438 101.511719 106.269531 101.355469 106.425781 C 101.199219 106.585938 101.078125 106.765625 100.992188 106.96875 C 100.910156 107.171875 100.867188 107.386719 100.867188 107.609375 C 100.867188 107.828125 100.910156 108.042969 100.992188 108.246094 C 101.078125 108.453125 101.199219 108.632812 101.355469 108.789062 C 101.511719 108.945312 101.691406 109.066406 101.898438 109.148438 C 102.101562 109.234375 102.3125 109.277344 102.535156 109.277344 C 102.757812 109.277344 102.96875 109.234375 103.175781 109.148438 C 103.378906 109.066406 103.558594 108.945312 103.714844 108.789062 C 103.871094 108.632812 103.992188 108.453125 104.078125 108.246094 C 104.164062 108.042969 104.203125 107.828125 104.203125 107.609375 C 104.203125 107.386719 104.160156 107.171875 104.078125 106.96875 C 103.992188 106.765625 103.871094 106.585938 103.714844 106.429688 C 103.558594 106.273438 103.378906 106.152344 103.175781 106.066406 C 102.96875 105.980469 102.757812 105.9375 102.535156 105.9375 Z M 102.535156 105.9375 " fill-opacity="1" fill-rule="nonzero"/><g clip-path="url(#c6685124ad)"><path fill="#ffffff" d="M 102.539062 82.230469 C 104.578125 82.230469 106.421875 83.058594 107.761719 84.394531 C 109.097656 85.730469 109.921875 87.574219 109.921875 89.613281 C 109.921875 91.652344 109.097656 93.5 107.761719 94.835938 C 106.421875 96.171875 104.578125 97 102.539062 97 C 100.5 97 98.652344 96.171875 97.316406 94.835938 C 95.980469 93.5 95.152344 91.652344 95.152344 89.613281 C 95.152344 87.574219 95.980469 85.730469 97.316406 84.394531 C 98.652344 83.058594 100.5 82.230469 102.539062 82.230469 Z M 107.460938 84.691406 C 106.199219 83.433594 104.460938 82.65625 102.539062 82.65625 C 100.617188 82.65625 98.875 83.433594 97.617188 84.691406 C 96.355469 85.953125 95.578125 87.691406 95.578125 89.613281 C 95.578125 91.539062 96.355469 93.277344 97.617188 94.535156 C 98.875 95.796875 100.617188 96.574219 102.539062 96.574219 C 104.460938 96.574219 106.199219 95.796875 107.460938 94.535156 C 108.71875 93.277344 109.496094 91.539062 109.496094 89.613281 C 109.496094 87.691406 108.71875 85.953125 107.460938 84.691406 Z M 107.460938 84.691406 " fill-opacity="1" fill-rule="nonzero"/></g><path fill="#ffffff" d="M 100.769531 88.878906 C 100.929688 89.347656 101.320312 89.890625 101.789062 90.363281 C 102.261719 90.832031 102.804688 91.222656 103.277344 91.386719 L 103.824219 90.835938 C 103.933594 90.726562 104.066406 90.660156 104.207031 90.632812 C 104.347656 90.605469 104.496094 90.617188 104.632812 90.679688 L 104.761719 90.730469 C 105.175781 90.902344 105.65625 91.097656 106.136719 91.292969 L 106.1875 91.316406 C 106.289062 91.359375 106.378906 91.417969 106.449219 91.496094 C 106.523438 91.574219 106.578125 91.667969 106.609375 91.773438 C 106.644531 91.875 106.65625 91.984375 106.640625 92.089844 C 106.628906 92.195312 106.59375 92.296875 106.535156 92.390625 C 106.394531 92.609375 106.246094 92.796875 106.085938 92.957031 C 105.457031 93.585938 104.675781 93.785156 103.871094 93.710938 C 103.085938 93.636719 102.28125 93.304688 101.570312 92.859375 C 101.097656 92.5625 100.667969 92.214844 100.316406 91.863281 L 100.289062 91.835938 C 99.9375 91.484375 99.59375 91.054688 99.296875 90.582031 C 98.851562 89.875 98.515625 89.066406 98.441406 88.285156 C 98.367188 87.476562 98.566406 86.695312 99.199219 86.0625 C 99.355469 85.90625 99.546875 85.757812 99.761719 85.617188 C 99.855469 85.558594 99.957031 85.523438 100.0625 85.511719 C 100.167969 85.496094 100.277344 85.507812 100.378906 85.542969 C 100.484375 85.574219 100.578125 85.628906 100.65625 85.703125 C 100.734375 85.773438 100.796875 85.863281 100.835938 85.964844 L 100.867188 86.035156 C 101.058594 86.511719 101.25 86.984375 101.421875 87.386719 C 101.425781 87.390625 101.46875 87.503906 101.472656 87.515625 C 101.535156 87.65625 101.546875 87.804688 101.519531 87.945312 C 101.492188 88.089844 101.425781 88.21875 101.316406 88.328125 Z M 101.488281 90.664062 C 100.933594 90.105469 100.476562 89.441406 100.324219 88.871094 L 100.289062 88.753906 L 101.015625 88.027344 C 101.0625 87.980469 101.09375 87.925781 101.105469 87.867188 C 101.117188 87.808594 101.109375 87.742188 101.082031 87.683594 L 101.03125 87.550781 C 100.824219 87.0625 100.648438 86.628906 100.472656 86.195312 L 100.445312 86.125 C 100.425781 86.082031 100.398438 86.042969 100.367188 86.011719 C 100.335938 85.984375 100.296875 85.960938 100.25 85.945312 C 100.203125 85.929688 100.160156 85.925781 100.113281 85.929688 C 100.070312 85.9375 100.027344 85.953125 99.988281 85.976562 C 99.800781 86.097656 99.636719 86.226562 99.496094 86.363281 C 98.96875 86.894531 98.800781 87.558594 98.863281 88.246094 C 98.929688 88.957031 99.238281 89.699219 99.652344 90.355469 C 99.929688 90.800781 100.257812 91.203125 100.589844 91.535156 L 100.617188 91.5625 C 100.949219 91.894531 101.355469 92.21875 101.796875 92.5 C 102.453125 92.914062 103.195312 93.222656 103.90625 93.289062 C 104.59375 93.351562 105.257812 93.183594 105.785156 92.65625 C 105.925781 92.515625 106.058594 92.351562 106.175781 92.164062 C 106.199219 92.125 106.214844 92.082031 106.222656 92.039062 C 106.226562 91.992188 106.222656 91.949219 106.207031 91.902344 C 106.191406 91.855469 106.171875 91.816406 106.140625 91.785156 C 106.109375 91.753906 106.074219 91.726562 106.027344 91.710938 L 105.976562 91.6875 C 105.535156 91.507812 105.097656 91.332031 104.597656 91.121094 L 104.46875 91.066406 C 104.410156 91.042969 104.347656 91.039062 104.285156 91.046875 C 104.230469 91.058594 104.171875 91.089844 104.125 91.136719 L 103.398438 91.863281 L 103.28125 91.832031 C 102.710938 91.675781 102.046875 91.21875 101.488281 90.664062 Z M 101.488281 90.664062 " fill-opacity="1" fill-rule="nonzero"/><g fill="#ffffff" fill-opacity="1"><g transform="translate(112.521156, 110.281185)"><g><path d="M 2.859375 0.078125 C 2.546875 0.078125 2.269531 0.015625 2.03125 -0.109375 C 1.789062 -0.234375 1.601562 -0.394531 1.46875 -0.59375 L 1.390625 -0.578125 L 1.390625 0 L 0.75 0 L 0.75 -6.046875 L 1.390625 -6.046875 L 1.390625 -3.671875 L 1.46875 -3.65625 C 1.800781 -4.144531 2.28125 -4.390625 2.90625 -4.390625 C 3.257812 -4.390625 3.566406 -4.304688 3.828125 -4.140625 C 4.097656 -3.984375 4.304688 -3.734375 4.453125 -3.390625 C 4.597656 -3.054688 4.671875 -2.644531 4.671875 -2.15625 C 4.671875 -1.664062 4.59375 -1.253906 4.4375 -0.921875 C 4.28125 -0.585938 4.066406 -0.335938 3.796875 -0.171875 C 3.523438 -0.00390625 3.210938 0.078125 2.859375 0.078125 Z M 2.71875 -0.484375 C 3.570312 -0.484375 4 -1.039062 4 -2.15625 C 4 -2.726562 3.882812 -3.148438 3.65625 -3.421875 C 3.4375 -3.691406 3.125 -3.828125 2.71875 -3.828125 C 2.3125 -3.828125 1.988281 -3.6875 1.75 -3.40625 C 1.507812 -3.132812 1.390625 -2.71875 1.390625 -2.15625 C 1.390625 -1.59375 1.507812 -1.171875 1.75 -0.890625 C 1.988281 -0.617188 2.3125 -0.484375 2.71875 -0.484375 Z M 2.71875 -0.484375 "/></g></g><g transform="translate(117.661784, 110.281185)"><g><path d="M 1.78125 0.078125 C 1.351562 0.078125 1.019531 -0.03125 0.78125 -0.25 C 0.539062 -0.46875 0.421875 -0.785156 0.421875 -1.203125 C 0.421875 -1.453125 0.472656 -1.664062 0.578125 -1.84375 C 0.691406 -2.019531 0.859375 -2.160156 1.078125 -2.265625 C 1.296875 -2.378906 1.582031 -2.46875 1.9375 -2.53125 C 2.25 -2.582031 2.488281 -2.640625 2.65625 -2.703125 C 2.820312 -2.773438 2.929688 -2.847656 2.984375 -2.921875 C 3.035156 -3.003906 3.0625 -3.109375 3.0625 -3.234375 C 3.0625 -3.429688 2.992188 -3.582031 2.859375 -3.6875 C 2.734375 -3.789062 2.519531 -3.84375 2.21875 -3.84375 C 1.9375 -3.84375 1.695312 -3.785156 1.5 -3.671875 C 1.300781 -3.566406 1.117188 -3.40625 0.953125 -3.1875 L 0.875 -3.1875 L 0.5625 -3.640625 C 0.75 -3.867188 0.984375 -4.050781 1.265625 -4.1875 C 1.546875 -4.320312 1.863281 -4.390625 2.21875 -4.390625 C 2.726562 -4.390625 3.101562 -4.273438 3.34375 -4.046875 C 3.582031 -3.828125 3.703125 -3.523438 3.703125 -3.140625 L 3.703125 -0.84375 C 3.703125 -0.601562 3.804688 -0.484375 4.015625 -0.484375 C 4.078125 -0.484375 4.140625 -0.5 4.203125 -0.53125 L 4.265625 -0.515625 L 4.328125 -0.0625 C 4.285156 -0.03125 4.222656 -0.0078125 4.140625 0 C 4.066406 0.0195312 3.988281 0.03125 3.90625 0.03125 C 3.675781 0.03125 3.5 -0.0195312 3.375 -0.125 C 3.25 -0.226562 3.171875 -0.382812 3.140625 -0.59375 L 3.0625 -0.59375 C 2.9375 -0.363281 2.769531 -0.191406 2.5625 -0.078125 C 2.351562 0.0234375 2.09375 0.078125 1.78125 0.078125 Z M 1.921875 -0.421875 C 2.160156 -0.421875 2.367188 -0.476562 2.546875 -0.59375 C 2.722656 -0.707031 2.859375 -0.863281 2.953125 -1.0625 C 3.046875 -1.257812 3.09375 -1.488281 3.09375 -1.75 L 3.09375 -2.296875 L 3.015625 -2.3125 C 2.921875 -2.25 2.800781 -2.191406 2.65625 -2.140625 C 2.519531 -2.097656 2.328125 -2.0625 2.078125 -2.03125 C 1.828125 -1.988281 1.628906 -1.929688 1.484375 -1.859375 C 1.335938 -1.796875 1.234375 -1.707031 1.171875 -1.59375 C 1.109375 -1.488281 1.078125 -1.359375 1.078125 -1.203125 C 1.078125 -0.953125 1.148438 -0.757812 1.296875 -0.625 C 1.453125 -0.488281 1.660156 -0.421875 1.921875 -0.421875 Z M 1.921875 -0.421875 "/></g></g><g transform="translate(122.118818, 110.281185)"><g><path d="M 1.71875 0.078125 C 1.414062 0.078125 1.175781 -0.00390625 1 -0.171875 C 0.820312 -0.347656 0.734375 -0.609375 0.734375 -0.953125 L 0.734375 -6.046875 L 1.375 -6.046875 L 1.375 -1 C 1.375 -0.820312 1.40625 -0.691406 1.46875 -0.609375 C 1.539062 -0.523438 1.648438 -0.484375 1.796875 -0.484375 C 1.890625 -0.484375 1.976562 -0.5 2.0625 -0.53125 L 2.125 -0.515625 L 2.203125 -0.015625 C 2.148438 0.015625 2.078125 0.0351562 1.984375 0.046875 C 1.898438 0.0664062 1.8125 0.078125 1.71875 0.078125 Z M 1.71875 0.078125 "/></g></g><g transform="translate(124.46257, 110.281185)"><g><path d="M 1.71875 0.078125 C 1.414062 0.078125 1.175781 -0.00390625 1 -0.171875 C 0.820312 -0.347656 0.734375 -0.609375 0.734375 -0.953125 L 0.734375 -6.046875 L 1.375 -6.046875 L 1.375 -1 C 1.375 -0.820312 1.40625 -0.691406 1.46875 -0.609375 C 1.539062 -0.523438 1.648438 -0.484375 1.796875 -0.484375 C 1.890625 -0.484375 1.976562 -0.5 2.0625 -0.53125 L 2.125 -0.515625 L 2.203125 -0.015625 C 2.148438 0.015625 2.078125 0.0351562 1.984375 0.046875 C 1.898438 0.0664062 1.8125 0.078125 1.71875 0.078125 Z M 1.71875 0.078125 "/></g></g><g transform="translate(126.806321, 110.281185)"><g><path d="M 2.46875 0.078125 C 2.0625 0.078125 1.707031 -0.00390625 1.40625 -0.171875 C 1.113281 -0.347656 0.882812 -0.601562 0.71875 -0.9375 C 0.550781 -1.269531 0.46875 -1.675781 0.46875 -2.15625 C 0.46875 -2.632812 0.550781 -3.039062 0.71875 -3.375 C 0.882812 -3.707031 1.113281 -3.957031 1.40625 -4.125 C 1.707031 -4.300781 2.0625 -4.390625 2.46875 -4.390625 C 2.875 -4.390625 3.226562 -4.300781 3.53125 -4.125 C 3.832031 -3.957031 4.0625 -3.707031 4.21875 -3.375 C 4.382812 -3.039062 4.46875 -2.632812 4.46875 -2.15625 C 4.46875 -1.675781 4.382812 -1.269531 4.21875 -0.9375 C 4.0625 -0.601562 3.832031 -0.347656 3.53125 -0.171875 C 3.226562 -0.00390625 2.875 0.078125 2.46875 0.078125 Z M 2.46875 -0.484375 C 2.90625 -0.484375 3.234375 -0.617188 3.453125 -0.890625 C 3.679688 -1.160156 3.796875 -1.582031 3.796875 -2.15625 C 3.796875 -2.726562 3.679688 -3.148438 3.453125 -3.421875 C 3.234375 -3.691406 2.90625 -3.828125 2.46875 -3.828125 C 2.039062 -3.828125 1.710938 -3.6875 1.484375 -3.40625 C 1.253906 -3.132812 1.140625 -2.71875 1.140625 -2.15625 C 1.140625 -1.582031 1.253906 -1.160156 1.484375 -0.890625 C 1.710938 -0.617188 2.039062 -0.484375 2.46875 -0.484375 Z M 2.46875 -0.484375 "/></g></g><g transform="translate(131.751637, 110.281185)"><g><path d="M 2.46875 0.078125 C 2.0625 0.078125 1.707031 -0.00390625 1.40625 -0.171875 C 1.113281 -0.347656 0.882812 -0.601562 0.71875 -0.9375 C 0.550781 -1.269531 0.46875 -1.675781 0.46875 -2.15625 C 0.46875 -2.632812 0.550781 -3.039062 0.71875 -3.375 C 0.882812 -3.707031 1.113281 -3.957031 1.40625 -4.125 C 1.707031 -4.300781 2.0625 -4.390625 2.46875 -4.390625 C 2.875 -4.390625 3.226562 -4.300781 3.53125 -4.125 C 3.832031 -3.957031 4.0625 -3.707031 4.21875 -3.375 C 4.382812 -3.039062 4.46875 -2.632812 4.46875 -2.15625 C 4.46875 -1.675781 4.382812 -1.269531 4.21875 -0.9375 C 4.0625 -0.601562 3.832031 -0.347656 3.53125 -0.171875 C 3.226562 -0.00390625 2.875 0.078125 2.46875 0.078125 Z M 2.46875 -0.484375 C 2.90625 -0.484375 3.234375 -0.617188 3.453125 -0.890625 C 3.679688 -1.160156 3.796875 -1.582031 3.796875 -2.15625 C 3.796875 -2.726562 3.679688 -3.148438 3.453125 -3.421875 C 3.234375 -3.691406 2.90625 -3.828125 2.46875 -3.828125 C 2.039062 -3.828125 1.710938 -3.6875 1.484375 -3.40625 C 1.253906 -3.132812 1.140625 -2.71875 1.140625 -2.15625 C 1.140625 -1.582031 1.253906 -1.160156 1.484375 -0.890625 C 1.710938 -0.617188 2.039062 -0.484375 2.46875 -0.484375 Z M 2.46875 -0.484375 "/></g></g><g transform="translate(136.696952, 110.281185)"><g><path d="M 0.75 0 L 0.75 -4.3125 L 1.359375 -4.3125 L 1.359375 -3.640625 L 1.4375 -3.609375 C 1.582031 -3.867188 1.765625 -4.0625 1.984375 -4.1875 C 2.210938 -4.320312 2.484375 -4.390625 2.796875 -4.390625 C 3.316406 -4.390625 3.691406 -4.253906 3.921875 -3.984375 C 4.160156 -3.722656 4.28125 -3.320312 4.28125 -2.78125 L 4.28125 0 L 3.640625 0 L 3.640625 -2.765625 C 3.640625 -3.023438 3.601562 -3.234375 3.53125 -3.390625 C 3.46875 -3.546875 3.367188 -3.660156 3.234375 -3.734375 C 3.097656 -3.804688 2.914062 -3.84375 2.6875 -3.84375 C 2.300781 -3.84375 1.988281 -3.710938 1.75 -3.453125 C 1.507812 -3.191406 1.390625 -2.78125 1.390625 -2.21875 L 1.390625 0 Z M 0.75 0 "/></g></g><g transform="translate(141.657893, 110.281185)"><g><path d="M 2.21875 1.828125 C 1.539062 1.828125 1.046875 1.710938 0.734375 1.484375 C 0.421875 1.265625 0.265625 0.96875 0.265625 0.59375 C 0.265625 0.34375 0.335938 0.144531 0.484375 0 C 0.628906 -0.132812 0.84375 -0.234375 1.125 -0.296875 L 1.125 -0.390625 C 0.988281 -0.460938 0.882812 -0.546875 0.8125 -0.640625 C 0.75 -0.742188 0.71875 -0.867188 0.71875 -1.015625 C 0.71875 -1.179688 0.769531 -1.316406 0.875 -1.421875 C 0.976562 -1.523438 1.132812 -1.601562 1.34375 -1.65625 L 1.34375 -1.734375 C 0.875 -1.984375 0.640625 -2.390625 0.640625 -2.953125 C 0.640625 -3.234375 0.703125 -3.484375 0.828125 -3.703125 C 0.960938 -3.921875 1.144531 -4.085938 1.375 -4.203125 C 1.613281 -4.328125 1.894531 -4.390625 2.21875 -4.390625 C 2.570312 -4.390625 2.875 -4.3125 3.125 -4.15625 C 3.207031 -4.257812 3.269531 -4.367188 3.3125 -4.484375 C 3.363281 -4.597656 3.394531 -4.726562 3.40625 -4.875 L 3.5 -4.921875 L 4.015625 -4.796875 C 3.992188 -4.578125 3.925781 -4.390625 3.8125 -4.234375 C 3.707031 -4.085938 3.5625 -3.96875 3.375 -3.875 L 3.375 -3.78125 C 3.507812 -3.675781 3.609375 -3.550781 3.671875 -3.40625 C 3.742188 -3.257812 3.78125 -3.085938 3.78125 -2.890625 C 3.78125 -2.617188 3.710938 -2.375 3.578125 -2.15625 C 3.453125 -1.9375 3.269531 -1.765625 3.03125 -1.640625 C 2.789062 -1.523438 2.519531 -1.46875 2.21875 -1.46875 C 2.175781 -1.46875 2.109375 -1.46875 2.015625 -1.46875 C 1.910156 -1.476562 1.832031 -1.484375 1.78125 -1.484375 C 1.644531 -1.484375 1.535156 -1.445312 1.453125 -1.375 C 1.378906 -1.300781 1.34375 -1.210938 1.34375 -1.109375 C 1.34375 -0.972656 1.382812 -0.867188 1.46875 -0.796875 C 1.5625 -0.734375 1.707031 -0.703125 1.90625 -0.703125 L 2.921875 -0.65625 C 3.359375 -0.644531 3.679688 -0.546875 3.890625 -0.359375 C 4.109375 -0.171875 4.21875 0.0976562 4.21875 0.453125 C 4.21875 0.710938 4.148438 0.941406 4.015625 1.140625 C 3.878906 1.347656 3.660156 1.515625 3.359375 1.640625 C 3.054688 1.765625 2.675781 1.828125 2.21875 1.828125 Z M 2.21875 -2.015625 C 2.519531 -2.015625 2.753906 -2.09375 2.921875 -2.25 C 3.085938 -2.40625 3.171875 -2.628906 3.171875 -2.921875 C 3.171875 -3.210938 3.085938 -3.4375 2.921875 -3.59375 C 2.753906 -3.757812 2.519531 -3.84375 2.21875 -3.84375 C 1.90625 -3.84375 1.664062 -3.757812 1.5 -3.59375 C 1.34375 -3.4375 1.265625 -3.210938 1.265625 -2.921875 C 1.265625 -2.628906 1.34375 -2.40625 1.5 -2.25 C 1.664062 -2.09375 1.90625 -2.015625 2.21875 -2.015625 Z M 2.21875 1.28125 C 2.539062 1.28125 2.800781 1.242188 3 1.171875 C 3.195312 1.109375 3.335938 1.015625 3.421875 0.890625 C 3.515625 0.773438 3.5625 0.648438 3.5625 0.515625 C 3.5625 0.378906 3.535156 0.269531 3.484375 0.1875 C 3.441406 0.113281 3.367188 0.0546875 3.265625 0.015625 C 3.160156 -0.015625 3.015625 -0.0351562 2.828125 -0.046875 L 1.859375 -0.09375 L 1.71875 -0.09375 C 1.1875 -0.09375 0.921875 0.113281 0.921875 0.53125 C 0.921875 1.03125 1.351562 1.28125 2.21875 1.28125 Z M 2.21875 1.28125 "/></g></g><g transform="translate(146.071958, 110.281185)"><g><path d="M 1.78125 0.078125 C 1.351562 0.078125 1.019531 -0.03125 0.78125 -0.25 C 0.539062 -0.46875 0.421875 -0.785156 0.421875 -1.203125 C 0.421875 -1.453125 0.472656 -1.664062 0.578125 -1.84375 C 0.691406 -2.019531 0.859375 -2.160156 1.078125 -2.265625 C 1.296875 -2.378906 1.582031 -2.46875 1.9375 -2.53125 C 2.25 -2.582031 2.488281 -2.640625 2.65625 -2.703125 C 2.820312 -2.773438 2.929688 -2.847656 2.984375 -2.921875 C 3.035156 -3.003906 3.0625 -3.109375 3.0625 -3.234375 C 3.0625 -3.429688 2.992188 -3.582031 2.859375 -3.6875 C 2.734375 -3.789062 2.519531 -3.84375 2.21875 -3.84375 C 1.9375 -3.84375 1.695312 -3.785156 1.5 -3.671875 C 1.300781 -3.566406 1.117188 -3.40625 0.953125 -3.1875 L 0.875 -3.1875 L 0.5625 -3.640625 C 0.75 -3.867188 0.984375 -4.050781 1.265625 -4.1875 C 1.546875 -4.320312 1.863281 -4.390625 2.21875 -4.390625 C 2.726562 -4.390625 3.101562 -4.273438 3.34375 -4.046875 C 3.582031 -3.828125 3.703125 -3.523438 3.703125 -3.140625 L 3.703125 -0.84375 C 3.703125 -0.601562 3.804688 -0.484375 4.015625 -0.484375 C 4.078125 -0.484375 4.140625 -0.5 4.203125 -0.53125 L 4.265625 -0.515625 L 4.328125 -0.0625 C 4.285156 -0.03125 4.222656 -0.0078125 4.140625 0 C 4.066406 0.0195312 3.988281 0.03125 3.90625 0.03125 C 3.675781 0.03125 3.5 -0.0195312 3.375 -0.125 C 3.25 -0.226562 3.171875 -0.382812 3.140625 -0.59375 L 3.0625 -0.59375 C 2.9375 -0.363281 2.769531 -0.191406 2.5625 -0.078125 C 2.351562 0.0234375 2.09375 0.078125 1.78125 0.078125 Z M 1.921875 -0.421875 C 2.160156 -0.421875 2.367188 -0.476562 2.546875 -0.59375 C 2.722656 -0.707031 2.859375 -0.863281 2.953125 -1.0625 C 3.046875 -1.257812 3.09375 -1.488281 3.09375 -1.75 L 3.09375 -2.296875 L 3.015625 -2.3125 C 2.921875 -2.25 2.800781 -2.191406 2.65625 -2.140625 C 2.519531 -2.097656 2.328125 -2.0625 2.078125 -2.03125 C 1.828125 -1.988281 1.628906 -1.929688 1.484375 -1.859375 C 1.335938 -1.796875 1.234375 -1.707031 1.171875 -1.59375 C 1.109375 -1.488281 1.078125 -1.359375 1.078125 -1.203125 C 1.078125 -0.953125 1.148438 -0.757812 1.296875 -0.625 C 1.453125 -0.488281 1.660156 -0.421875 1.921875 -0.421875 Z M 1.921875 -0.421875 "/></g></g><g transform="translate(150.528992, 110.281185)"><g><path d="M 0.75 0 L 0.75 -4.3125 L 1.359375 -4.3125 L 1.359375 -3.640625 L 1.4375 -3.609375 C 1.632812 -4.097656 2.015625 -4.34375 2.578125 -4.34375 C 2.867188 -4.34375 3.085938 -4.289062 3.234375 -4.1875 L 3.0625 -3.65625 L 2.984375 -3.640625 C 2.828125 -3.710938 2.648438 -3.75 2.453125 -3.75 C 2.109375 -3.75 1.84375 -3.617188 1.65625 -3.359375 C 1.476562 -3.109375 1.390625 -2.691406 1.390625 -2.109375 L 1.390625 0 Z M 0.75 0 "/></g></g><g transform="translate(153.857119, 110.281185)"><g><path d="M 1.71875 0.078125 C 1.414062 0.078125 1.175781 -0.00390625 1 -0.171875 C 0.820312 -0.347656 0.734375 -0.609375 0.734375 -0.953125 L 0.734375 -6.046875 L 1.375 -6.046875 L 1.375 -1 C 1.375 -0.820312 1.40625 -0.691406 1.46875 -0.609375 C 1.539062 -0.523438 1.648438 -0.484375 1.796875 -0.484375 C 1.890625 -0.484375 1.976562 -0.5 2.0625 -0.53125 L 2.125 -0.515625 L 2.203125 -0.015625 C 2.148438 0.015625 2.078125 0.0351562 1.984375 0.046875 C 1.898438 0.0664062 1.8125 0.078125 1.71875 0.078125 Z M 1.71875 0.078125 "/></g></g><g transform="translate(156.20087, 110.281185)"><g><path d="M 1.78125 0.078125 C 1.351562 0.078125 1.019531 -0.03125 0.78125 -0.25 C 0.539062 -0.46875 0.421875 -0.785156 0.421875 -1.203125 C 0.421875 -1.453125 0.472656 -1.664062 0.578125 -1.84375 C 0.691406 -2.019531 0.859375 -2.160156 1.078125 -2.265625 C 1.296875 -2.378906 1.582031 -2.46875 1.9375 -2.53125 C 2.25 -2.582031 2.488281 -2.640625 2.65625 -2.703125 C 2.820312 -2.773438 2.929688 -2.847656 2.984375 -2.921875 C 3.035156 -3.003906 3.0625 -3.109375 3.0625 -3.234375 C 3.0625 -3.429688 2.992188 -3.582031 2.859375 -3.6875 C 2.734375 -3.789062 2.519531 -3.84375 2.21875 -3.84375 C 1.9375 -3.84375 1.695312 -3.785156 1.5 -3.671875 C 1.300781 -3.566406 1.117188 -3.40625 0.953125 -3.1875 L 0.875 -3.1875 L 0.5625 -3.640625 C 0.75 -3.867188 0.984375 -4.050781 1.265625 -4.1875 C 1.546875 -4.320312 1.863281 -4.390625 2.21875 -4.390625 C 2.726562 -4.390625 3.101562 -4.273438 3.34375 -4.046875 C 3.582031 -3.828125 3.703125 -3.523438 3.703125 -3.140625 L 3.703125 -0.84375 C 3.703125 -0.601562 3.804688 -0.484375 4.015625 -0.484375 C 4.078125 -0.484375 4.140625 -0.5 4.203125 -0.53125 L 4.265625 -0.515625 L 4.328125 -0.0625 C 4.285156 -0.03125 4.222656 -0.0078125 4.140625 0 C 4.066406 0.0195312 3.988281 0.03125 3.90625 0.03125 C 3.675781 0.03125 3.5 -0.0195312 3.375 -0.125 C 3.25 -0.226562 3.171875 -0.382812 3.140625 -0.59375 L 3.0625 -0.59375 C 2.9375 -0.363281 2.769531 -0.191406 2.5625 -0.078125 C 2.351562 0.0234375 2.09375 0.078125 1.78125 0.078125 Z M 1.921875 -0.421875 C 2.160156 -0.421875 2.367188 -0.476562 2.546875 -0.59375 C 2.722656 -0.707031 2.859375 -0.863281 2.953125 -1.0625 C 3.046875 -1.257812 3.09375 -1.488281 3.09375 -1.75 L 3.09375 -2.296875 L 3.015625 -2.3125 C 2.921875 -2.25 2.800781 -2.191406 2.65625 -2.140625 C 2.519531 -2.097656 2.328125 -2.0625 2.078125 -2.03125 C 1.828125 -1.988281 1.628906 -1.929688 1.484375 -1.859375 C 1.335938 -1.796875 1.234375 -1.707031 1.171875 -1.59375 C 1.109375 -1.488281 1.078125 -1.359375 1.078125 -1.203125 C 1.078125 -0.953125 1.148438 -0.757812 1.296875 -0.625 C 1.453125 -0.488281 1.660156 -0.421875 1.921875 -0.421875 Z M 1.921875 -0.421875 "/></g></g><g transform="translate(160.657904, 110.281185)"><g><path d="M 0.75 0 L 0.75 -4.3125 L 1.359375 -4.3125 L 1.359375 -3.640625 L 1.4375 -3.609375 C 1.582031 -3.867188 1.765625 -4.0625 1.984375 -4.1875 C 2.210938 -4.320312 2.484375 -4.390625 2.796875 -4.390625 C 3.316406 -4.390625 3.691406 -4.253906 3.921875 -3.984375 C 4.160156 -3.722656 4.28125 -3.320312 4.28125 -2.78125 L 4.28125 0 L 3.640625 0 L 3.640625 -2.765625 C 3.640625 -3.023438 3.601562 -3.234375 3.53125 -3.390625 C 3.46875 -3.546875 3.367188 -3.660156 3.234375 -3.734375 C 3.097656 -3.804688 2.914062 -3.84375 2.6875 -3.84375 C 2.300781 -3.84375 1.988281 -3.710938 1.75 -3.453125 C 1.507812 -3.191406 1.390625 -2.78125 1.390625 -2.21875 L 1.390625 0 Z M 0.75 0 "/></g></g><g transform="translate(165.618844, 110.281185)"><g><path d="M 2.234375 0.078125 C 1.890625 0.078125 1.582031 -0.00390625 1.3125 -0.171875 C 1.050781 -0.335938 0.84375 -0.585938 0.6875 -0.921875 C 0.539062 -1.253906 0.46875 -1.664062 0.46875 -2.15625 C 0.46875 -2.644531 0.546875 -3.054688 0.703125 -3.390625 C 0.859375 -3.722656 1.070312 -3.972656 1.34375 -4.140625 C 1.625 -4.304688 1.945312 -4.390625 2.3125 -4.390625 C 2.59375 -4.390625 2.847656 -4.332031 3.078125 -4.21875 C 3.304688 -4.113281 3.503906 -3.941406 3.671875 -3.703125 L 3.75 -3.71875 L 3.75 -6.046875 L 4.390625 -6.046875 L 4.390625 0 L 3.75 0 L 3.75 -0.625 L 3.671875 -0.640625 C 3.535156 -0.429688 3.34375 -0.257812 3.09375 -0.125 C 2.851562 0.0078125 2.566406 0.078125 2.234375 0.078125 Z M 2.4375 -0.484375 C 2.832031 -0.484375 3.148438 -0.617188 3.390625 -0.890625 C 3.628906 -1.171875 3.75 -1.59375 3.75 -2.15625 C 3.75 -2.71875 3.628906 -3.132812 3.390625 -3.40625 C 3.148438 -3.6875 2.832031 -3.828125 2.4375 -3.828125 C 2.019531 -3.828125 1.695312 -3.691406 1.46875 -3.421875 C 1.25 -3.148438 1.140625 -2.726562 1.140625 -2.15625 C 1.140625 -1.039062 1.570312 -0.484375 2.4375 -0.484375 Z M 2.4375 -0.484375 "/></g></g><g transform="translate(170.763379, 110.281185)"><g><path d="M 2.859375 0.078125 C 2.546875 0.078125 2.269531 0.015625 2.03125 -0.109375 C 1.789062 -0.234375 1.601562 -0.394531 1.46875 -0.59375 L 1.390625 -0.578125 L 1.390625 0 L 0.75 0 L 0.75 -6.046875 L 1.390625 -6.046875 L 1.390625 -3.671875 L 1.46875 -3.65625 C 1.800781 -4.144531 2.28125 -4.390625 2.90625 -4.390625 C 3.257812 -4.390625 3.566406 -4.304688 3.828125 -4.140625 C 4.097656 -3.984375 4.304688 -3.734375 4.453125 -3.390625 C 4.597656 -3.054688 4.671875 -2.644531 4.671875 -2.15625 C 4.671875 -1.664062 4.59375 -1.253906 4.4375 -0.921875 C 4.28125 -0.585938 4.066406 -0.335938 3.796875 -0.171875 C 3.523438 -0.00390625 3.210938 0.078125 2.859375 0.078125 Z M 2.71875 -0.484375 C 3.570312 -0.484375 4 -1.039062 4 -2.15625 C 4 -2.726562 3.882812 -3.148438 3.65625 -3.421875 C 3.4375 -3.691406 3.125 -3.828125 2.71875 -3.828125 C 2.3125 -3.828125 1.988281 -3.6875 1.75 -3.40625 C 1.507812 -3.132812 1.390625 -2.71875 1.390625 -2.15625 C 1.390625 -1.59375 1.507812 -1.171875 1.75 -0.890625 C 1.988281 -0.617188 2.3125 -0.484375 2.71875 -0.484375 Z M 2.71875 -0.484375 "/></g></g><g transform="translate(175.904007, 110.281185)"><g><path d="M 0.859375 1.828125 C 0.710938 1.828125 0.578125 1.8125 0.453125 1.78125 C 0.328125 1.757812 0.21875 1.726562 0.125 1.6875 L 0.25 1.1875 L 0.3125 1.15625 C 0.375 1.1875 0.453125 1.210938 0.546875 1.234375 C 0.640625 1.265625 0.738281 1.28125 0.84375 1.28125 C 1.019531 1.28125 1.164062 1.253906 1.28125 1.203125 C 1.394531 1.160156 1.488281 1.082031 1.5625 0.96875 C 1.644531 0.863281 1.722656 0.71875 1.796875 0.53125 L 1.953125 0.109375 L 0.21875 -4.3125 L 0.90625 -4.3125 L 2.265625 -0.796875 L 2.34375 -0.796875 L 3.65625 -4.3125 L 4.296875 -4.3125 L 2.375 0.671875 C 2.269531 0.953125 2.148438 1.175781 2.015625 1.34375 C 1.878906 1.507812 1.71875 1.628906 1.53125 1.703125 C 1.34375 1.785156 1.117188 1.828125 0.859375 1.828125 Z M 0.859375 1.828125 "/></g></g><g transform="translate(180.446978, 110.281185)"><g><path d="M 1.78125 0.078125 C 1.351562 0.078125 1.019531 -0.03125 0.78125 -0.25 C 0.539062 -0.46875 0.421875 -0.785156 0.421875 -1.203125 C 0.421875 -1.453125 0.472656 -1.664062 0.578125 -1.84375 C 0.691406 -2.019531 0.859375 -2.160156 1.078125 -2.265625 C 1.296875 -2.378906 1.582031 -2.46875 1.9375 -2.53125 C 2.25 -2.582031 2.488281 -2.640625 2.65625 -2.703125 C 2.820312 -2.773438 2.929688 -2.847656 2.984375 -2.921875 C 3.035156 -3.003906 3.0625 -3.109375 3.0625 -3.234375 C 3.0625 -3.429688 2.992188 -3.582031 2.859375 -3.6875 C 2.734375 -3.789062 2.519531 -3.84375 2.21875 -3.84375 C 1.9375 -3.84375 1.695312 -3.785156 1.5 -3.671875 C 1.300781 -3.566406 1.117188 -3.40625 0.953125 -3.1875 L 0.875 -3.1875 L 0.5625 -3.640625 C 0.75 -3.867188 0.984375 -4.050781 1.265625 -4.1875 C 1.546875 -4.320312 1.863281 -4.390625 2.21875 -4.390625 C 2.726562 -4.390625 3.101562 -4.273438 3.34375 -4.046875 C 3.582031 -3.828125 3.703125 -3.523438 3.703125 -3.140625 L 3.703125 -0.84375 C 3.703125 -0.601562 3.804688 -0.484375 4.015625 -0.484375 C 4.078125 -0.484375 4.140625 -0.5 4.203125 -0.53125 L 4.265625 -0.515625 L 4.328125 -0.0625 C 4.285156 -0.03125 4.222656 -0.0078125 4.140625 0 C 4.066406 0.0195312 3.988281 0.03125 3.90625 0.03125 C 3.675781 0.03125 3.5 -0.0195312 3.375 -0.125 C 3.25 -0.226562 3.171875 -0.382812 3.140625 -0.59375 L 3.0625 -0.59375 C 2.9375 -0.363281 2.769531 -0.191406 2.5625 -0.078125 C 2.351562 0.0234375 2.09375 0.078125 1.78125 0.078125 Z M 1.921875 -0.421875 C 2.160156 -0.421875 2.367188 -0.476562 2.546875 -0.59375 C 2.722656 -0.707031 2.859375 -0.863281 2.953125 -1.0625 C 3.046875 -1.257812 3.09375 -1.488281 3.09375 -1.75 L 3.09375 -2.296875 L 3.015625 -2.3125 C 2.921875 -2.25 2.800781 -2.191406 2.65625 -2.140625 C 2.519531 -2.097656 2.328125 -2.0625 2.078125 -2.03125 C 1.828125 -1.988281 1.628906 -1.929688 1.484375 -1.859375 C 1.335938 -1.796875 1.234375 -1.707031 1.171875 -1.59375 C 1.109375 -1.488281 1.078125 -1.359375 1.078125 -1.203125 C 1.078125 -0.953125 1.148438 -0.757812 1.296875 -0.625 C 1.453125 -0.488281 1.660156 -0.421875 1.921875 -0.421875 Z M 1.921875 -0.421875 "/></g></g><g transform="translate(184.904012, 110.281185)"><g><path d="M 1.96875 0.078125 C 1.695312 0.078125 1.445312 0.0390625 1.21875 -0.03125 C 0.988281 -0.101562 0.789062 -0.203125 0.625 -0.328125 C 0.46875 -0.453125 0.359375 -0.59375 0.296875 -0.75 L 0.671875 -1.140625 L 0.75 -1.140625 C 0.894531 -0.921875 1.066406 -0.753906 1.265625 -0.640625 C 1.460938 -0.535156 1.695312 -0.484375 1.96875 -0.484375 C 2.28125 -0.484375 2.519531 -0.546875 2.6875 -0.671875 C 2.851562 -0.796875 2.9375 -0.96875 2.9375 -1.1875 C 2.9375 -1.363281 2.882812 -1.503906 2.78125 -1.609375 C 2.6875 -1.722656 2.523438 -1.804688 2.296875 -1.859375 L 1.578125 -2.046875 C 1.191406 -2.140625 0.90625 -2.285156 0.71875 -2.484375 C 0.539062 -2.691406 0.453125 -2.941406 0.453125 -3.234375 C 0.453125 -3.472656 0.507812 -3.675781 0.625 -3.84375 C 0.75 -4.019531 0.925781 -4.15625 1.15625 -4.25 C 1.382812 -4.34375 1.648438 -4.390625 1.953125 -4.390625 C 2.347656 -4.390625 2.660156 -4.332031 2.890625 -4.21875 C 3.117188 -4.113281 3.296875 -3.960938 3.421875 -3.765625 L 3.0625 -3.40625 L 2.984375 -3.40625 C 2.847656 -3.570312 2.695312 -3.6875 2.53125 -3.75 C 2.375 -3.820312 2.179688 -3.859375 1.953125 -3.859375 C 1.671875 -3.859375 1.453125 -3.804688 1.296875 -3.703125 C 1.148438 -3.609375 1.078125 -3.460938 1.078125 -3.265625 C 1.078125 -3.085938 1.128906 -2.945312 1.234375 -2.84375 C 1.347656 -2.738281 1.535156 -2.65625 1.796875 -2.59375 L 2.515625 -2.421875 C 2.890625 -2.328125 3.160156 -2.175781 3.328125 -1.96875 C 3.492188 -1.769531 3.578125 -1.515625 3.578125 -1.203125 C 3.578125 -0.953125 3.515625 -0.726562 3.390625 -0.53125 C 3.273438 -0.34375 3.09375 -0.191406 2.84375 -0.078125 C 2.601562 0.0234375 2.3125 0.078125 1.96875 0.078125 Z M 1.96875 0.078125 "/></g></g><g transform="translate(188.88839, 110.281185)"><g><path d="M 1.078125 -5.140625 C 0.941406 -5.140625 0.828125 -5.179688 0.734375 -5.265625 C 0.648438 -5.347656 0.609375 -5.457031 0.609375 -5.59375 C 0.609375 -5.71875 0.648438 -5.820312 0.734375 -5.90625 C 0.828125 -6 0.941406 -6.046875 1.078125 -6.046875 C 1.210938 -6.046875 1.320312 -6 1.40625 -5.90625 C 1.488281 -5.820312 1.53125 -5.71875 1.53125 -5.59375 C 1.53125 -5.457031 1.488281 -5.347656 1.40625 -5.265625 C 1.320312 -5.179688 1.210938 -5.140625 1.078125 -5.140625 Z M 0.75 0 L 0.75 -4.3125 L 1.390625 -4.3125 L 1.390625 0 Z M 0.75 0 "/></g></g></g><g fill="#ffffff" fill-opacity="1"><g transform="translate(112.521156, 92.281186)"><g><path d="M 2.421875 0.078125 C 1.921875 0.078125 1.515625 -0.03125 1.203125 -0.25 C 0.898438 -0.476562 0.707031 -0.789062 0.625 -1.1875 L 1.125 -1.40625 L 1.203125 -1.390625 C 1.296875 -1.109375 1.4375 -0.894531 1.625 -0.75 C 1.8125 -0.601562 2.078125 -0.53125 2.421875 -0.53125 C 2.890625 -0.53125 3.25 -0.726562 3.5 -1.125 C 3.75 -1.519531 3.875 -2.128906 3.875 -2.953125 L 3.796875 -2.984375 C 3.640625 -2.648438 3.4375 -2.40625 3.1875 -2.25 C 2.945312 -2.09375 2.640625 -2.015625 2.265625 -2.015625 C 1.910156 -2.015625 1.597656 -2.085938 1.328125 -2.234375 C 1.066406 -2.390625 0.863281 -2.609375 0.71875 -2.890625 C 0.582031 -3.179688 0.515625 -3.515625 0.515625 -3.890625 C 0.515625 -4.265625 0.59375 -4.597656 0.75 -4.890625 C 0.90625 -5.179688 1.125 -5.40625 1.40625 -5.5625 C 1.695312 -5.71875 2.035156 -5.796875 2.421875 -5.796875 C 3.085938 -5.796875 3.609375 -5.566406 3.984375 -5.109375 C 4.367188 -4.660156 4.5625 -3.929688 4.5625 -2.921875 C 4.5625 -2.242188 4.46875 -1.679688 4.28125 -1.234375 C 4.101562 -0.785156 3.851562 -0.453125 3.53125 -0.234375 C 3.21875 -0.0234375 2.847656 0.078125 2.421875 0.078125 Z M 2.421875 -2.59375 C 2.671875 -2.59375 2.890625 -2.644531 3.078125 -2.75 C 3.273438 -2.851562 3.425781 -3 3.53125 -3.1875 C 3.632812 -3.382812 3.6875 -3.617188 3.6875 -3.890625 C 3.6875 -4.160156 3.632812 -4.394531 3.53125 -4.59375 C 3.425781 -4.789062 3.273438 -4.9375 3.078125 -5.03125 C 2.890625 -5.132812 2.671875 -5.1875 2.421875 -5.1875 C 2.035156 -5.1875 1.734375 -5.078125 1.515625 -4.859375 C 1.304688 -4.640625 1.203125 -4.316406 1.203125 -3.890625 C 1.203125 -3.472656 1.304688 -3.148438 1.515625 -2.921875 C 1.734375 -2.703125 2.035156 -2.59375 2.421875 -2.59375 Z M 2.421875 -2.59375 "/></g></g><g transform="translate(117.661784, 92.281186)"><g><path d="M 0.40625 0 L 0.40625 -0.5625 L 1.96875 -0.5625 L 1.96875 -4.921875 L 1.875 -4.953125 C 1.625 -4.828125 1.398438 -4.726562 1.203125 -4.65625 C 1.015625 -4.59375 0.773438 -4.53125 0.484375 -4.46875 L 0.484375 -5.078125 C 0.773438 -5.140625 1.0625 -5.222656 1.34375 -5.328125 C 1.632812 -5.441406 1.898438 -5.570312 2.140625 -5.71875 L 2.625 -5.71875 L 2.625 -0.5625 L 4.015625 -0.5625 L 4.015625 0 Z M 0.40625 0 "/></g></g><g transform="translate(121.919599, 92.281186)"><g><path d="M 2.359375 0.078125 C 1.816406 0.078125 1.382812 -0.0351562 1.0625 -0.265625 C 0.75 -0.503906 0.546875 -0.84375 0.453125 -1.28125 L 0.953125 -1.515625 L 1.03125 -1.5 C 1.101562 -1.269531 1.191406 -1.082031 1.296875 -0.9375 C 1.398438 -0.800781 1.535156 -0.695312 1.703125 -0.625 C 1.878906 -0.5625 2.097656 -0.53125 2.359375 -0.53125 C 2.742188 -0.53125 3.039062 -0.644531 3.25 -0.875 C 3.46875 -1.101562 3.578125 -1.4375 3.578125 -1.875 C 3.578125 -2.320312 3.46875 -2.660156 3.25 -2.890625 C 3.039062 -3.128906 2.753906 -3.25 2.390625 -3.25 C 2.097656 -3.25 1.863281 -3.191406 1.6875 -3.078125 C 1.507812 -2.960938 1.351562 -2.785156 1.21875 -2.546875 L 0.6875 -2.59375 L 0.796875 -5.71875 L 4 -5.71875 L 4 -5.140625 L 1.375 -5.140625 L 1.3125 -3.25 L 1.390625 -3.234375 C 1.523438 -3.429688 1.691406 -3.578125 1.890625 -3.671875 C 2.085938 -3.773438 2.320312 -3.828125 2.59375 -3.828125 C 2.925781 -3.828125 3.21875 -3.75 3.46875 -3.59375 C 3.726562 -3.4375 3.925781 -3.210938 4.0625 -2.921875 C 4.207031 -2.628906 4.28125 -2.28125 4.28125 -1.875 C 4.28125 -1.46875 4.195312 -1.117188 4.03125 -0.828125 C 3.875 -0.535156 3.648438 -0.3125 3.359375 -0.15625 C 3.066406 0 2.734375 0.078125 2.359375 0.078125 Z M 2.359375 0.078125 "/></g></g><g transform="translate(126.646165, 92.281186)"><g><path d="M 0.34375 -0.265625 C 0.34375 -0.578125 0.375 -0.828125 0.4375 -1.015625 C 0.507812 -1.210938 0.628906 -1.394531 0.796875 -1.5625 C 0.960938 -1.726562 1.226562 -1.945312 1.59375 -2.21875 L 2.234375 -2.671875 C 2.460938 -2.835938 2.648438 -2.992188 2.796875 -3.140625 C 2.941406 -3.285156 3.054688 -3.441406 3.140625 -3.609375 C 3.222656 -3.773438 3.265625 -3.960938 3.265625 -4.171875 C 3.265625 -4.503906 3.175781 -4.753906 3 -4.921875 C 2.820312 -5.097656 2.539062 -5.1875 2.15625 -5.1875 C 1.851562 -5.1875 1.582031 -5.113281 1.34375 -4.96875 C 1.113281 -4.832031 0.925781 -4.640625 0.78125 -4.390625 L 0.703125 -4.375 L 0.296875 -4.796875 C 0.484375 -5.109375 0.734375 -5.351562 1.046875 -5.53125 C 1.367188 -5.707031 1.738281 -5.796875 2.15625 -5.796875 C 2.5625 -5.796875 2.894531 -5.722656 3.15625 -5.578125 C 3.425781 -5.441406 3.625 -5.253906 3.75 -5.015625 C 3.882812 -4.773438 3.953125 -4.492188 3.953125 -4.171875 C 3.953125 -3.910156 3.894531 -3.671875 3.78125 -3.453125 C 3.675781 -3.234375 3.523438 -3.023438 3.328125 -2.828125 C 3.140625 -2.628906 2.898438 -2.425781 2.609375 -2.21875 L 1.96875 -1.75 C 1.726562 -1.570312 1.546875 -1.421875 1.421875 -1.296875 C 1.296875 -1.179688 1.203125 -1.0625 1.140625 -0.9375 C 1.078125 -0.820312 1.046875 -0.695312 1.046875 -0.5625 L 3.953125 -0.5625 L 3.953125 0 L 0.34375 0 Z M 0.34375 -0.265625 "/></g></g><g transform="translate(131.036792, 92.281186)"><g><path d="M 0.34375 -0.265625 C 0.34375 -0.578125 0.375 -0.828125 0.4375 -1.015625 C 0.507812 -1.210938 0.628906 -1.394531 0.796875 -1.5625 C 0.960938 -1.726562 1.226562 -1.945312 1.59375 -2.21875 L 2.234375 -2.671875 C 2.460938 -2.835938 2.648438 -2.992188 2.796875 -3.140625 C 2.941406 -3.285156 3.054688 -3.441406 3.140625 -3.609375 C 3.222656 -3.773438 3.265625 -3.960938 3.265625 -4.171875 C 3.265625 -4.503906 3.175781 -4.753906 3 -4.921875 C 2.820312 -5.097656 2.539062 -5.1875 2.15625 -5.1875 C 1.851562 -5.1875 1.582031 -5.113281 1.34375 -4.96875 C 1.113281 -4.832031 0.925781 -4.640625 0.78125 -4.390625 L 0.703125 -4.375 L 0.296875 -4.796875 C 0.484375 -5.109375 0.734375 -5.351562 1.046875 -5.53125 C 1.367188 -5.707031 1.738281 -5.796875 2.15625 -5.796875 C 2.5625 -5.796875 2.894531 -5.722656 3.15625 -5.578125 C 3.425781 -5.441406 3.625 -5.253906 3.75 -5.015625 C 3.882812 -4.773438 3.953125 -4.492188 3.953125 -4.171875 C 3.953125 -3.910156 3.894531 -3.671875 3.78125 -3.453125 C 3.675781 -3.234375 3.523438 -3.023438 3.328125 -2.828125 C 3.140625 -2.628906 2.898438 -2.425781 2.609375 -2.21875 L 1.96875 -1.75 C 1.726562 -1.570312 1.546875 -1.421875 1.421875 -1.296875 C 1.296875 -1.179688 1.203125 -1.0625 1.140625 -0.9375 C 1.078125 -0.820312 1.046875 -0.695312 1.046875 -0.5625 L 3.953125 -0.5625 L 3.953125 0 L 0.34375 0 Z M 0.34375 -0.265625 "/></g></g><g transform="translate(135.42742, 92.281186)"><g><path d="M 1.546875 0 L 0.90625 0 L 3.015625 -5.0625 L 3 -5.140625 L 0.21875 -5.140625 L 0.21875 -5.71875 L 3.703125 -5.71875 L 3.703125 -5.09375 Z M 1.546875 0 "/></g></g><g transform="translate(139.372735, 92.281186)"><g><path d="M 1.546875 0 L 0.90625 0 L 3.015625 -5.0625 L 3 -5.140625 L 0.21875 -5.140625 L 0.21875 -5.71875 L 3.703125 -5.71875 L 3.703125 -5.09375 Z M 1.546875 0 "/></g></g><g transform="translate(143.31805, 92.281186)"><g><path d="M 3.578125 0 L 2.9375 0 L 2.9375 -1.359375 L 0.265625 -1.359375 L 0.265625 -1.90625 L 2.78125 -5.71875 L 3.578125 -5.71875 L 3.578125 -1.90625 L 4.5625 -1.90625 L 4.5625 -1.359375 L 3.578125 -1.359375 Z M 1.046875 -1.984375 L 1.09375 -1.90625 L 2.9375 -1.90625 L 2.9375 -4.78125 L 2.84375 -4.796875 Z M 1.046875 -1.984375 "/></g></g><g transform="translate(148.157896, 92.281186)"><g><path d="M 2.734375 0.078125 C 2.328125 0.078125 1.960938 -0.015625 1.640625 -0.203125 C 1.316406 -0.398438 1.0625 -0.71875 0.875 -1.15625 C 0.6875 -1.59375 0.59375 -2.160156 0.59375 -2.859375 C 0.59375 -3.535156 0.6875 -4.09375 0.875 -4.53125 C 1.0625 -4.96875 1.320312 -5.285156 1.65625 -5.484375 C 1.988281 -5.691406 2.367188 -5.796875 2.796875 -5.796875 C 3.523438 -5.796875 4.0625 -5.570312 4.40625 -5.125 L 4.078125 -4.6875 L 3.984375 -4.6875 C 3.703125 -5.019531 3.304688 -5.1875 2.796875 -5.1875 C 2.296875 -5.1875 1.914062 -5 1.65625 -4.625 C 1.394531 -4.257812 1.265625 -3.664062 1.265625 -2.84375 L 1.34375 -2.8125 C 1.5 -3.132812 1.703125 -3.375 1.953125 -3.53125 C 2.203125 -3.695312 2.507812 -3.78125 2.875 -3.78125 C 3.238281 -3.78125 3.550781 -3.703125 3.8125 -3.546875 C 4.082031 -3.398438 4.285156 -3.179688 4.421875 -2.890625 C 4.566406 -2.597656 4.640625 -2.253906 4.640625 -1.859375 C 4.640625 -1.460938 4.5625 -1.117188 4.40625 -0.828125 C 4.25 -0.535156 4.023438 -0.3125 3.734375 -0.15625 C 3.453125 0 3.117188 0.078125 2.734375 0.078125 Z M 2.734375 -0.53125 C 3.109375 -0.53125 3.398438 -0.644531 3.609375 -0.875 C 3.828125 -1.101562 3.9375 -1.429688 3.9375 -1.859375 C 3.9375 -2.296875 3.828125 -2.628906 3.609375 -2.859375 C 3.398438 -3.085938 3.109375 -3.203125 2.734375 -3.203125 C 2.472656 -3.203125 2.242188 -3.148438 2.046875 -3.046875 C 1.859375 -2.941406 1.710938 -2.785156 1.609375 -2.578125 C 1.515625 -2.378906 1.46875 -2.140625 1.46875 -1.859375 C 1.46875 -1.578125 1.515625 -1.335938 1.609375 -1.140625 C 1.710938 -0.941406 1.859375 -0.789062 2.046875 -0.6875 C 2.242188 -0.582031 2.472656 -0.53125 2.734375 -0.53125 Z M 2.734375 -0.53125 "/></g></g><g transform="translate(153.302431, 92.281186)"><g><path d="M 0.34375 -0.265625 C 0.34375 -0.578125 0.375 -0.828125 0.4375 -1.015625 C 0.507812 -1.210938 0.628906 -1.394531 0.796875 -1.5625 C 0.960938 -1.726562 1.226562 -1.945312 1.59375 -2.21875 L 2.234375 -2.671875 C 2.460938 -2.835938 2.648438 -2.992188 2.796875 -3.140625 C 2.941406 -3.285156 3.054688 -3.441406 3.140625 -3.609375 C 3.222656 -3.773438 3.265625 -3.960938 3.265625 -4.171875 C 3.265625 -4.503906 3.175781 -4.753906 3 -4.921875 C 2.820312 -5.097656 2.539062 -5.1875 2.15625 -5.1875 C 1.851562 -5.1875 1.582031 -5.113281 1.34375 -4.96875 C 1.113281 -4.832031 0.925781 -4.640625 0.78125 -4.390625 L 0.703125 -4.375 L 0.296875 -4.796875 C 0.484375 -5.109375 0.734375 -5.351562 1.046875 -5.53125 C 1.367188 -5.707031 1.738281 -5.796875 2.15625 -5.796875 C 2.5625 -5.796875 2.894531 -5.722656 3.15625 -5.578125 C 3.425781 -5.441406 3.625 -5.253906 3.75 -5.015625 C 3.882812 -4.773438 3.953125 -4.492188 3.953125 -4.171875 C 3.953125 -3.910156 3.894531 -3.671875 3.78125 -3.453125 C 3.675781 -3.234375 3.523438 -3.023438 3.328125 -2.828125 C 3.140625 -2.628906 2.898438 -2.425781 2.609375 -2.21875 L 1.96875 -1.75 C 1.726562 -1.570312 1.546875 -1.421875 1.421875 -1.296875 C 1.296875 -1.179688 1.203125 -1.0625 1.140625 -0.9375 C 1.078125 -0.820312 1.046875 -0.695312 1.046875 -0.5625 L 3.953125 -0.5625 L 3.953125 0 L 0.34375 0 Z M 0.34375 -0.265625 "/></g></g></g><g fill="#ffffff" fill-opacity="1"><g transform="translate(95.152739, 51.414473)"><g><path d="M 0.34375 -11.203125 L 5.125 -11.203125 C 6.601562 -11.203125 7.710938 -11 8.453125 -10.59375 C 9.191406 -10.195312 9.5625 -9.523438 9.5625 -8.578125 C 9.5625 -7.117188 8.679688 -6.242188 6.921875 -5.953125 L 6.921875 -5.921875 C 9.054688 -5.648438 10.125 -4.722656 10.125 -3.140625 C 10.125 -1.972656 9.6875 -1.15625 8.8125 -0.6875 C 7.9375 -0.226562 6.679688 0 5.046875 0 L 0.34375 0 L 0.34375 -0.296875 L 1.375 -0.296875 L 1.375 -10.890625 L 0.34375 -10.890625 Z M 4.5 -5.65625 L 4.5 -0.296875 L 5.25 -0.296875 C 5.832031 -0.296875 6.238281 -0.5 6.46875 -0.90625 C 6.707031 -1.3125 6.828125 -1.910156 6.828125 -2.703125 L 6.828125 -3.546875 C 6.828125 -4.253906 6.679688 -4.78125 6.390625 -5.125 C 6.109375 -5.476562 5.597656 -5.65625 4.859375 -5.65625 Z M 4.5 -10.890625 L 4.5 -5.96875 L 4.90625 -5.96875 C 5.46875 -5.96875 5.859375 -6.132812 6.078125 -6.46875 C 6.296875 -6.800781 6.40625 -7.316406 6.40625 -8.015625 L 6.40625 -8.765625 C 6.40625 -9.554688 6.304688 -10.109375 6.109375 -10.421875 C 5.921875 -10.734375 5.554688 -10.890625 5.015625 -10.890625 Z M 4.5 -10.890625 "/></g></g></g><g fill="#ffffff" fill-opacity="1"><g transform="translate(105.694212, 51.414473)"><g><path d="M 4 -3.765625 L 4.46875 -3.765625 L 4.46875 -4.984375 C 4.46875 -6.003906 4.410156 -6.6875 4.296875 -7.03125 C 4.179688 -7.375 3.960938 -7.546875 3.640625 -7.546875 C 3.453125 -7.546875 3.28125 -7.492188 3.125 -7.390625 C 2.96875 -7.296875 2.890625 -7.160156 2.890625 -6.984375 C 2.890625 -6.804688 2.921875 -6.628906 2.984375 -6.453125 L 3.390625 -6.453125 C 3.472656 -6.222656 3.515625 -5.953125 3.515625 -5.640625 C 3.515625 -5.328125 3.378906 -5.054688 3.109375 -4.828125 C 2.847656 -4.597656 2.515625 -4.484375 2.109375 -4.484375 C 1.191406 -4.484375 0.734375 -4.925781 0.734375 -5.8125 C 0.734375 -7.125 1.847656 -7.78125 4.078125 -7.78125 C 5.347656 -7.78125 6.222656 -7.5625 6.703125 -7.125 C 7.191406 -6.695312 7.4375 -5.90625 7.4375 -4.75 L 7.4375 -1.5 C 7.4375 -0.945312 7.59375 -0.671875 7.90625 -0.671875 C 8.269531 -0.671875 8.484375 -1.21875 8.546875 -2.3125 L 8.78125 -2.296875 C 8.738281 -1.359375 8.5625 -0.710938 8.25 -0.359375 C 7.945312 -0.015625 7.441406 0.15625 6.734375 0.15625 C 5.453125 0.15625 4.71875 -0.238281 4.53125 -1.03125 C 4.382812 -0.625 4.171875 -0.320312 3.890625 -0.125 C 3.617188 0.0625 3.21875 0.15625 2.6875 0.15625 C 1.101562 0.15625 0.3125 -0.488281 0.3125 -1.78125 C 0.3125 -2.53125 0.613281 -3.046875 1.21875 -3.328125 C 1.820312 -3.617188 2.75 -3.765625 4 -3.765625 Z M 3.359375 -1.796875 C 3.359375 -1.234375 3.382812 -0.875 3.4375 -0.71875 C 3.5 -0.5625 3.613281 -0.484375 3.78125 -0.484375 C 3.945312 -0.484375 4.101562 -0.617188 4.25 -0.890625 C 4.394531 -1.160156 4.46875 -1.535156 4.46875 -2.015625 L 4.46875 -3.5 L 4.359375 -3.5 C 3.691406 -3.5 3.359375 -3.015625 3.359375 -2.046875 Z M 3.359375 -1.796875 "/></g></g></g><g fill="#ffffff" fill-opacity="1"><g transform="translate(114.476098, 51.414473)"><g><path d="M 0.09375 -12 L 4.015625 -12 L 4.015625 -0.28125 L 4.90625 -0.28125 L 4.90625 0 L 0.15625 0 L 0.15625 -0.28125 L 1.046875 -0.28125 L 1.046875 -11.71875 L 0.09375 -11.71875 Z M 0.09375 -12 "/></g></g></g><g fill="#ffffff" fill-opacity="1"><g transform="translate(119.530885, 51.414473)"><g><path d="M 0.09375 -12 L 4.015625 -12 L 4.015625 -0.28125 L 4.90625 -0.28125 L 4.90625 0 L 0.15625 0 L 0.15625 -0.28125 L 1.046875 -0.28125 L 1.046875 -11.71875 L 0.09375 -11.71875 Z M 0.09375 -12 "/></g></g></g><g fill="#ffffff" fill-opacity="1"><g transform="translate(124.585671, 51.414473)"><g><path d="M 5.328125 -3.15625 L 5.328125 -4.515625 C 5.328125 -5.546875 5.269531 -6.296875 5.15625 -6.765625 C 5.039062 -7.242188 4.785156 -7.484375 4.390625 -7.484375 C 4.148438 -7.484375 3.957031 -7.414062 3.8125 -7.28125 C 3.664062 -7.15625 3.5625 -6.9375 3.5 -6.625 C 3.40625 -6.144531 3.359375 -5.414062 3.359375 -4.4375 L 3.359375 -3.1875 C 3.359375 -2.019531 3.390625 -1.316406 3.453125 -1.078125 C 3.523438 -0.847656 3.601562 -0.660156 3.6875 -0.515625 C 3.800781 -0.253906 4.03125 -0.125 4.375 -0.125 C 4.78125 -0.125 5.050781 -0.363281 5.1875 -0.84375 C 5.28125 -1.1875 5.328125 -1.957031 5.328125 -3.15625 Z M 4.34375 0.15625 C 3.007812 0.15625 2 -0.179688 1.3125 -0.859375 C 0.625 -1.546875 0.28125 -2.523438 0.28125 -3.796875 C 0.28125 -5.078125 0.644531 -6.0625 1.375 -6.75 C 2.113281 -7.4375 3.144531 -7.78125 4.46875 -7.78125 C 5.789062 -7.78125 6.773438 -7.460938 7.421875 -6.828125 C 8.078125 -6.191406 8.40625 -5.222656 8.40625 -3.921875 C 8.40625 -1.203125 7.050781 0.15625 4.34375 0.15625 Z M 4.34375 0.15625 "/></g></g></g><g fill="#ffffff" fill-opacity="1"><g transform="translate(133.271587, 51.414473)"><g><path d="M 5.328125 -3.15625 L 5.328125 -4.515625 C 5.328125 -5.546875 5.269531 -6.296875 5.15625 -6.765625 C 5.039062 -7.242188 4.785156 -7.484375 4.390625 -7.484375 C 4.148438 -7.484375 3.957031 -7.414062 3.8125 -7.28125 C 3.664062 -7.15625 3.5625 -6.9375 3.5 -6.625 C 3.40625 -6.144531 3.359375 -5.414062 3.359375 -4.4375 L 3.359375 -3.1875 C 3.359375 -2.019531 3.390625 -1.316406 3.453125 -1.078125 C 3.523438 -0.847656 3.601562 -0.660156 3.6875 -0.515625 C 3.800781 -0.253906 4.03125 -0.125 4.375 -0.125 C 4.78125 -0.125 5.050781 -0.363281 5.1875 -0.84375 C 5.28125 -1.1875 5.328125 -1.957031 5.328125 -3.15625 Z M 4.34375 0.15625 C 3.007812 0.15625 2 -0.179688 1.3125 -0.859375 C 0.625 -1.546875 0.28125 -2.523438 0.28125 -3.796875 C 0.28125 -5.078125 0.644531 -6.0625 1.375 -6.75 C 2.113281 -7.4375 3.144531 -7.78125 4.46875 -7.78125 C 5.789062 -7.78125 6.773438 -7.460938 7.421875 -6.828125 C 8.078125 -6.191406 8.40625 -5.222656 8.40625 -3.921875 C 8.40625 -1.203125 7.050781 0.15625 4.34375 0.15625 Z M 4.34375 0.15625 "/></g></g></g><g fill="#ffffff" fill-opacity="1"><g transform="translate(141.957504, 51.414473)"><g><path d="M 0.1875 -7.609375 L 4.046875 -7.609375 L 4.046875 -6.140625 C 4.210938 -6.628906 4.472656 -7.023438 4.828125 -7.328125 C 5.179688 -7.628906 5.71875 -7.78125 6.4375 -7.78125 C 8.082031 -7.78125 8.90625 -6.890625 8.90625 -5.109375 L 8.90625 -0.28125 L 9.8125 -0.28125 L 9.8125 0 L 5.28125 0 L 5.28125 -0.28125 L 5.9375 -0.28125 L 5.9375 -5.484375 C 5.9375 -6.128906 5.894531 -6.546875 5.8125 -6.734375 C 5.726562 -6.921875 5.570312 -7.015625 5.34375 -7.015625 C 5 -7.015625 4.695312 -6.785156 4.4375 -6.328125 C 4.175781 -5.878906 4.046875 -5.335938 4.046875 -4.703125 L 4.046875 -0.28125 L 4.734375 -0.28125 L 4.734375 0 L 0.1875 0 L 0.1875 -0.28125 L 1.078125 -0.28125 L 1.078125 -7.328125 L 0.1875 -7.328125 Z M 0.1875 -7.609375 "/></g></g></g><g fill="#ffffff" fill-opacity="1"><g transform="translate(151.811141, 51.414473)"><g/></g></g><g fill="#ffffff" fill-opacity="1"><g transform="translate(154.690451, 51.414473)"><g><path d="M 6.234375 -0.15625 C 6.765625 -0.15625 7.097656 -0.25 7.234375 -0.4375 C 7.378906 -0.632812 7.453125 -0.960938 7.453125 -1.421875 L 7.453125 -4.53125 L 6.4375 -4.53125 L 6.4375 -4.875 L 11.046875 -4.875 L 11.046875 -4.53125 L 10.421875 -4.53125 L 10.421875 -0.015625 L 10.171875 -0.015625 C 9.984375 -0.285156 9.710938 -0.421875 9.359375 -0.421875 C 9.210938 -0.421875 8.765625 -0.320312 8.015625 -0.125 C 7.273438 0.0625 6.644531 0.15625 6.125 0.15625 C 4.382812 0.15625 3.035156 -0.3125 2.078125 -1.25 C 1.128906 -2.1875 0.65625 -3.59375 0.65625 -5.46875 C 0.65625 -7.351562 1.148438 -8.804688 2.140625 -9.828125 C 3.140625 -10.859375 4.484375 -11.375 6.171875 -11.375 C 6.828125 -11.375 7.484375 -11.289062 8.140625 -11.125 C 8.796875 -10.957031 9.175781 -10.875 9.28125 -10.875 C 9.382812 -10.875 9.460938 -10.898438 9.515625 -10.953125 C 9.566406 -11.003906 9.628906 -11.085938 9.703125 -11.203125 L 9.875 -11.203125 L 10 -7.734375 L 9.71875 -7.734375 C 9.1875 -8.765625 8.65625 -9.578125 8.125 -10.171875 C 7.601562 -10.765625 7.019531 -11.0625 6.375 -11.0625 C 4.738281 -11.0625 3.921875 -9.460938 3.921875 -6.265625 L 3.921875 -5.015625 C 3.921875 -3.410156 4.117188 -2.195312 4.515625 -1.375 C 4.921875 -0.5625 5.492188 -0.15625 6.234375 -0.15625 Z M 6.234375 -0.15625 "/></g></g></g><g fill="#ffffff" fill-opacity="1"><g transform="translate(166.255678, 51.414473)"><g><path d="M 4 -3.765625 L 4.46875 -3.765625 L 4.46875 -4.984375 C 4.46875 -6.003906 4.410156 -6.6875 4.296875 -7.03125 C 4.179688 -7.375 3.960938 -7.546875 3.640625 -7.546875 C 3.453125 -7.546875 3.28125 -7.492188 3.125 -7.390625 C 2.96875 -7.296875 2.890625 -7.160156 2.890625 -6.984375 C 2.890625 -6.804688 2.921875 -6.628906 2.984375 -6.453125 L 3.390625 -6.453125 C 3.472656 -6.222656 3.515625 -5.953125 3.515625 -5.640625 C 3.515625 -5.328125 3.378906 -5.054688 3.109375 -4.828125 C 2.847656 -4.597656 2.515625 -4.484375 2.109375 -4.484375 C 1.191406 -4.484375 0.734375 -4.925781 0.734375 -5.8125 C 0.734375 -7.125 1.847656 -7.78125 4.078125 -7.78125 C 5.347656 -7.78125 6.222656 -7.5625 6.703125 -7.125 C 7.191406 -6.695312 7.4375 -5.90625 7.4375 -4.75 L 7.4375 -1.5 C 7.4375 -0.945312 7.59375 -0.671875 7.90625 -0.671875 C 8.269531 -0.671875 8.484375 -1.21875 8.546875 -2.3125 L 8.78125 -2.296875 C 8.738281 -1.359375 8.5625 -0.710938 8.25 -0.359375 C 7.945312 -0.015625 7.441406 0.15625 6.734375 0.15625 C 5.453125 0.15625 4.71875 -0.238281 4.53125 -1.03125 C 4.382812 -0.625 4.171875 -0.320312 3.890625 -0.125 C 3.617188 0.0625 3.21875 0.15625 2.6875 0.15625 C 1.101562 0.15625 0.3125 -0.488281 0.3125 -1.78125 C 0.3125 -2.53125 0.613281 -3.046875 1.21875 -3.328125 C 1.820312 -3.617188 2.75 -3.765625 4 -3.765625 Z M 3.359375 -1.796875 C 3.359375 -1.234375 3.382812 -0.875 3.4375 -0.71875 C 3.5 -0.5625 3.613281 -0.484375 3.78125 -0.484375 C 3.945312 -0.484375 4.101562 -0.617188 4.25 -0.890625 C 4.394531 -1.160156 4.46875 -1.535156 4.46875 -2.015625 L 4.46875 -3.5 L 4.359375 -3.5 C 3.691406 -3.5 3.359375 -3.015625 3.359375 -2.046875 Z M 3.359375 -1.796875 "/></g></g></g><g fill="#ffffff" fill-opacity="1"><g transform="translate(175.037565, 51.414473)"><g><path d="M 5.5 -7.171875 C 5.101562 -7.171875 4.753906 -6.910156 4.453125 -6.390625 C 4.160156 -5.878906 4.015625 -5.273438 4.015625 -4.578125 L 4.015625 -0.28125 L 5.15625 -0.28125 L 5.15625 0 L 0.15625 0 L 0.15625 -0.28125 L 1.046875 -0.28125 L 1.046875 -7.328125 L 0.15625 -7.328125 L 0.15625 -7.609375 L 4.015625 -7.609375 L 4.015625 -6.078125 C 4.148438 -6.617188 4.414062 -7.035156 4.8125 -7.328125 C 5.207031 -7.628906 5.65625 -7.78125 6.15625 -7.78125 C 6.65625 -7.78125 7.0625 -7.632812 7.375 -7.34375 C 7.695312 -7.0625 7.859375 -6.660156 7.859375 -6.140625 C 7.859375 -5.628906 7.738281 -5.234375 7.5 -4.953125 C 7.269531 -4.679688 6.910156 -4.546875 6.421875 -4.546875 C 5.941406 -4.546875 5.585938 -4.703125 5.359375 -5.015625 C 5.128906 -5.335938 5.097656 -5.785156 5.265625 -6.359375 L 5.84375 -6.359375 C 6.101562 -6.898438 5.988281 -7.171875 5.5 -7.171875 Z M 5.5 -7.171875 "/></g></g></g><g fill="#ffffff" fill-opacity="1"><g transform="translate(182.955663, 51.414473)"><g><path d="M 0.09375 -12 L 4.015625 -12 L 4.015625 -0.28125 L 4.90625 -0.28125 L 4.90625 0 L 0.15625 0 L 0.15625 -0.28125 L 1.046875 -0.28125 L 1.046875 -11.71875 L 0.09375 -11.71875 Z M 0.09375 -12 "/></g></g></g><g fill="#ffffff" fill-opacity="1"><g transform="translate(188.010449, 51.414473)"><g><path d="M 4 -3.765625 L 4.46875 -3.765625 L 4.46875 -4.984375 C 4.46875 -6.003906 4.410156 -6.6875 4.296875 -7.03125 C 4.179688 -7.375 3.960938 -7.546875 3.640625 -7.546875 C 3.453125 -7.546875 3.28125 -7.492188 3.125 -7.390625 C 2.96875 -7.296875 2.890625 -7.160156 2.890625 -6.984375 C 2.890625 -6.804688 2.921875 -6.628906 2.984375 -6.453125 L 3.390625 -6.453125 C 3.472656 -6.222656 3.515625 -5.953125 3.515625 -5.640625 C 3.515625 -5.328125 3.378906 -5.054688 3.109375 -4.828125 C 2.847656 -4.597656 2.515625 -4.484375 2.109375 -4.484375 C 1.191406 -4.484375 0.734375 -4.925781 0.734375 -5.8125 C 0.734375 -7.125 1.847656 -7.78125 4.078125 -7.78125 C 5.347656 -7.78125 6.222656 -7.5625 6.703125 -7.125 C 7.191406 -6.695312 7.4375 -5.90625 7.4375 -4.75 L 7.4375 -1.5 C 7.4375 -0.945312 7.59375 -0.671875 7.90625 -0.671875 C 8.269531 -0.671875 8.484375 -1.21875 8.546875 -2.3125 L 8.78125 -2.296875 C 8.738281 -1.359375 8.5625 -0.710938 8.25 -0.359375 C 7.945312 -0.015625 7.441406 0.15625 6.734375 0.15625 C 5.453125 0.15625 4.71875 -0.238281 4.53125 -1.03125 C 4.382812 -0.625 4.171875 -0.320312 3.890625 -0.125 C 3.617188 0.0625 3.21875 0.15625 2.6875 0.15625 C 1.101562 0.15625 0.3125 -0.488281 0.3125 -1.78125 C 0.3125 -2.53125 0.613281 -3.046875 1.21875 -3.328125 C 1.820312 -3.617188 2.75 -3.765625 4 -3.765625 Z M 3.359375 -1.796875 C 3.359375 -1.234375 3.382812 -0.875 3.4375 -0.71875 C 3.5 -0.5625 3.613281 -0.484375 3.78125 -0.484375 C 3.945312 -0.484375 4.101562 -0.617188 4.25 -0.890625 C 4.394531 -1.160156 4.46875 -1.535156 4.46875 -2.015625 L 4.46875 -3.5 L 4.359375 -3.5 C 3.691406 -3.5 3.359375 -3.015625 3.359375 -2.046875 Z M 3.359375 -1.796875 "/></g></g></g><g fill="#ffffff" fill-opacity="1"><g transform="translate(196.792336, 51.414473)"><g><path d="M 0.1875 -7.609375 L 4.046875 -7.609375 L 4.046875 -6.140625 C 4.210938 -6.628906 4.472656 -7.023438 4.828125 -7.328125 C 5.179688 -7.628906 5.71875 -7.78125 6.4375 -7.78125 C 8.082031 -7.78125 8.90625 -6.890625 8.90625 -5.109375 L 8.90625 -0.28125 L 9.8125 -0.28125 L 9.8125 0 L 5.28125 0 L 5.28125 -0.28125 L 5.9375 -0.28125 L 5.9375 -5.484375 C 5.9375 -6.128906 5.894531 -6.546875 5.8125 -6.734375 C 5.726562 -6.921875 5.570312 -7.015625 5.34375 -7.015625 C 5 -7.015625 4.695312 -6.785156 4.4375 -6.328125 C 4.175781 -5.878906 4.046875 -5.335938 4.046875 -4.703125 L 4.046875 -0.28125 L 4.734375 -0.28125 L 4.734375 0 L 0.1875 0 L 0.1875 -0.28125 L 1.078125 -0.28125 L 1.078125 -7.328125 L 0.1875 -7.328125 Z M 0.1875 -7.609375 "/></g></g></g><g fill="#ffffff" fill-opacity="1"><g transform="translate(206.645973, 51.414473)"><g><path d="M 3.40625 -3.3125 C 3.40625 -2.1875 3.460938 -1.441406 3.578125 -1.078125 C 3.703125 -0.710938 3.921875 -0.53125 4.234375 -0.53125 C 4.546875 -0.53125 4.816406 -0.664062 5.046875 -0.9375 C 5.273438 -1.21875 5.390625 -1.628906 5.390625 -2.171875 L 5.390625 -5.65625 C 5.390625 -6.125 5.296875 -6.515625 5.109375 -6.828125 C 4.929688 -7.148438 4.664062 -7.3125 4.3125 -7.3125 C 3.96875 -7.3125 3.726562 -7.078125 3.59375 -6.609375 C 3.46875 -6.140625 3.40625 -5.316406 3.40625 -4.140625 Z M 5.59375 0 L 5.421875 -1.125 C 5.054688 -0.269531 4.320312 0.15625 3.21875 0.15625 C 2.300781 0.15625 1.585938 -0.171875 1.078125 -0.828125 C 0.566406 -1.492188 0.3125 -2.484375 0.3125 -3.796875 C 0.3125 -6.453125 1.367188 -7.78125 3.484375 -7.78125 C 4.421875 -7.78125 5.039062 -7.515625 5.34375 -6.984375 L 5.34375 -11.71875 L 4.375 -11.71875 L 4.375 -12 L 8.375 -12 L 8.375 -0.28125 L 9.15625 -0.28125 L 9.15625 0 Z M 5.59375 0 "/></g></g></g><g fill="#ffffff" fill-opacity="1"><g transform="translate(216.051711, 51.414473)"><g><path d="M 0.53125 0.15625 L 0.53125 -2.703125 L 0.71875 -2.703125 C 1 -1.773438 1.375 -1.125 1.84375 -0.75 C 2.3125 -0.375 2.894531 -0.1875 3.59375 -0.1875 C 4.6875 -0.1875 5.234375 -0.535156 5.234375 -1.234375 C 5.234375 -1.535156 5.097656 -1.757812 4.828125 -1.90625 C 4.410156 -2.132812 3.878906 -2.316406 3.234375 -2.453125 C 2.503906 -2.640625 1.894531 -2.894531 1.40625 -3.21875 C 0.820312 -3.601562 0.53125 -4.207031 0.53125 -5.03125 C 0.53125 -5.863281 0.785156 -6.53125 1.296875 -7.03125 C 1.804688 -7.53125 2.488281 -7.78125 3.34375 -7.78125 C 3.863281 -7.78125 4.398438 -7.65625 4.953125 -7.40625 C 5.160156 -7.320312 5.316406 -7.28125 5.421875 -7.28125 C 5.523438 -7.28125 5.613281 -7.316406 5.6875 -7.390625 C 5.769531 -7.460938 5.863281 -7.601562 5.96875 -7.8125 L 6.140625 -7.8125 L 6.140625 -5.359375 L 5.953125 -5.359375 C 5.410156 -6.742188 4.566406 -7.4375 3.421875 -7.4375 C 2.921875 -7.4375 2.546875 -7.347656 2.296875 -7.171875 C 2.054688 -6.992188 1.9375 -6.773438 1.9375 -6.515625 C 1.9375 -6.347656 1.972656 -6.21875 2.046875 -6.125 C 2.117188 -6.039062 2.175781 -5.976562 2.21875 -5.9375 C 2.257812 -5.894531 2.328125 -5.847656 2.421875 -5.796875 C 2.523438 -5.753906 2.609375 -5.71875 2.671875 -5.6875 C 2.734375 -5.65625 2.832031 -5.617188 2.96875 -5.578125 C 3.101562 -5.535156 3.203125 -5.507812 3.265625 -5.5 C 3.992188 -5.320312 4.515625 -5.164062 4.828125 -5.03125 C 5.148438 -4.894531 5.457031 -4.734375 5.75 -4.546875 C 6.332031 -4.140625 6.625 -3.484375 6.625 -2.578125 C 6.625 -1.679688 6.359375 -1 5.828125 -0.53125 C 5.296875 -0.0703125 4.5625 0.15625 3.625 0.15625 C 2.96875 0.15625 2.332031 0.00390625 1.71875 -0.296875 C 1.582031 -0.390625 1.476562 -0.4375 1.40625 -0.4375 C 1.175781 -0.4375 0.945312 -0.238281 0.71875 0.15625 Z M 0.53125 0.15625 "/></g></g></g><g fill="#ffffff" fill-opacity="1"><g transform="translate(96.333234, 61.597827)"><g><path d="M 1.484375 -6.125 L 0.40625 -6.125 L 0.40625 -1.8125 C 0.40625 -1.265625 0.453125 -1.015625 0.625 -0.71875 C 0.90625 -0.21875 1.453125 0.09375 2.03125 0.09375 C 2.6875 0.09375 3.3125 -0.328125 3.53125 -0.90625 C 3.609375 -1.125 3.671875 -1.484375 3.671875 -1.734375 L 3.671875 -2.8125 C 3.671875 -3.40625 3.609375 -3.640625 3.40625 -3.9375 C 3.15625 -4.296875 2.6875 -4.53125 2.234375 -4.53125 C 1.96875 -4.53125 1.71875 -4.46875 1.484375 -4.3125 Z M 2.046875 -0.890625 C 1.78125 -0.890625 1.578125 -1.046875 1.515625 -1.265625 C 1.5 -1.375 1.484375 -1.5 1.484375 -1.6875 L 1.484375 -2.8125 C 1.484375 -3.28125 1.671875 -3.546875 2.03125 -3.546875 C 2.390625 -3.546875 2.578125 -3.28125 2.578125 -2.8125 L 2.578125 -1.6875 C 2.578125 -1.5 2.578125 -1.375 2.546875 -1.265625 C 2.5 -1.046875 2.28125 -0.890625 2.03125 -0.890625 Z M 2.046875 -0.890625 "/></g></g></g><g fill="#ffffff" fill-opacity="1"><g transform="translate(100.373275, 61.597827)"><g><path d="M 0.40625 -4.453125 L 0.40625 -1.71875 C 0.40625 -1.0625 0.421875 -0.984375 0.578125 -0.671875 C 0.796875 -0.234375 1.3125 0.078125 1.828125 0.078125 C 2.125 0.078125 2.34375 0.015625 2.59375 -0.140625 L 2.59375 1.6875 L 3.671875 1.6875 L 3.671875 -4.453125 L 2.59375 -4.453125 L 2.59375 -1.6875 C 2.59375 -1.4375 2.59375 -1.359375 2.5625 -1.265625 C 2.484375 -1.0625 2.265625 -0.90625 2.046875 -0.90625 C 1.734375 -0.90625 1.484375 -1.15625 1.484375 -1.453125 L 1.484375 -4.453125 Z M 0.40625 -4.453125 "/></g></g></g><g fill="#ffffff" fill-opacity="1"><g transform="translate(104.453315, 61.597827)"><g/></g></g><g fill="#ffffff" fill-opacity="1"><g transform="translate(106.26933, 61.597827)"><g><path d="M 3.515625 0 L 3.515625 -2.75 C 3.515625 -3.421875 3.453125 -3.625 3.15625 -3.96875 C 3.015625 -4.140625 2.8125 -4.265625 2.59375 -4.34375 C 2.375 -4.4375 2.1875 -4.453125 1.8125 -4.453125 L 0.84375 -4.453125 L 0.84375 -3.46875 L 1.921875 -3.46875 C 2.34375 -3.46875 2.4375 -3.390625 2.4375 -3.015625 L 2.4375 -2.78125 L 2.015625 -2.78125 C 1.546875 -2.78125 1.4375 -2.765625 1.1875 -2.6875 C 1 -2.625 0.828125 -2.53125 0.671875 -2.390625 C 0.390625 -2.125 0.25 -1.796875 0.25 -1.40625 C 0.25 -0.84375 0.578125 -0.3125 1.046875 -0.140625 C 1.34375 -0.03125 1.484375 0 1.984375 0 Z M 2.4375 -1 L 1.90625 -1 C 1.640625 -1 1.34375 -1.03125 1.34375 -1.390625 C 1.34375 -1.6875 1.578125 -1.765625 1.828125 -1.765625 L 2.4375 -1.765625 Z M 2.4375 -1 "/></g></g></g><g fill="#ffffff" fill-opacity="1"><g transform="translate(110.189365, 61.597827)"><g><path d="M 3.1875 -3.171875 L 3.1875 -3.21875 C 3.1875 -3.9375 2.53125 -4.53125 1.75 -4.53125 C 0.9375 -4.53125 0.328125 -3.921875 0.328125 -3.125 C 0.328125 -2.453125 0.65625 -1.890625 1.59375 -1.75 C 2.078125 -1.65625 2.21875 -1.5 2.21875 -1.265625 C 2.21875 -1.03125 2.03125 -0.828125 1.765625 -0.828125 C 1.484375 -0.828125 1.3125 -1.015625 1.296875 -1.3125 L 0.265625 -1.3125 C 0.296875 -0.515625 0.9375 0.078125 1.765625 0.078125 C 2.59375 0.078125 3.234375 -0.53125 3.234375 -1.359375 C 3.234375 -2.25 2.578125 -2.671875 1.921875 -2.75 C 1.40625 -2.796875 1.296875 -2.984375 1.296875 -3.203125 C 1.296875 -3.453125 1.5 -3.625 1.765625 -3.625 C 2.015625 -3.625 2.1875 -3.46875 2.21875 -3.171875 Z M 3.1875 -3.171875 "/></g></g></g><g fill="#ffffff" fill-opacity="1"><g transform="translate(113.693404, 61.597827)"><g><path d="M 1.484375 -4.453125 L 0.40625 -4.453125 L 0.40625 0 L 1.484375 0 Z M 1.546875 -5.609375 C 1.546875 -5.9375 1.28125 -6.203125 0.953125 -6.203125 C 0.625 -6.203125 0.359375 -5.9375 0.359375 -5.609375 C 0.359375 -5.28125 0.625 -5.03125 0.953125 -5.03125 C 1.28125 -5.03125 1.546875 -5.28125 1.546875 -5.609375 Z M 1.546875 -5.609375 "/></g></g></g><path stroke-linecap="butt" transform="matrix(0.75, 0.000488892, -0.000488892, 0.75, 95.152739, 68.916648)" fill="none" stroke-linejoin="miter" d="M 0.000777899 2.001761 L 170.4852 2.000004 " stroke="#ffffff" stroke-width="4" stroke-opacity="1" stroke-miterlimit="4"/></svg>